<svg width="29" height="47" viewBox="0 0 29 47" fill="none" xmlns="http://www.w3.org/2000/svg">
<path d="M14.6315 45.3245C18.9547 45.3245 22.9236 42.7178 23.4802 39.5139L24.3789 31.5622C22.6915 32.4091 22.1471 34.2839 18.59 32.8278C18.59 32.8278 15.073 30.9138 14.0923 30.617C9.22649 29.1383 4.62065 33.1002 4.57703 33.1611L5.85521 39.4217C6.41709 42.6595 10.3572 45.3245 14.6315 45.3245Z" fill="url(#paint0_linear_3211_2)"/>
<path d="M26.5087 18.3335C26.13 13.1504 22.4926 8.78029 17.4549 7.45646L17.7306 4.90366L19.9266 3.78698L20.0139 3.74259L21.573 2.96013C21.8967 2.79737 22.1428 2.51363 22.257 2.16983C22.3705 1.8269 22.3434 1.45264 22.1803 1.12887L21.9883 0.751126C21.9665 0.709348 21.943 0.66844 21.9177 0.629274C21.5407 0.040033 20.7782 -0.168856 20.1526 0.146218L19.6815 0.383829L19.6474 0.400366L15.2013 2.6024C14.943 2.7199 14.765 2.96535 14.7345 3.24735L14.3227 7.04825C7.90121 7.06827 2.6698 12.0416 2.21262 18.3335C0.92745 18.5815 0 19.7026 0 21.0064V22.2867C0.00174497 23.742 1.15168 24.937 2.60872 25.0005L4.40866 38.9047C4.77074 43.2565 8.21443 46.5404 12.4146 46.5404H16.5414C20.7424 46.5404 24.1844 43.2591 24.5421 38.9543L26.349 24.9805C27.7031 24.8029 28.7169 23.6541 28.7195 22.291V21.0116C28.7213 19.7052 27.793 18.5815 26.5078 18.3335H26.5087ZM14.3602 9.09014C19.637 9.09014 23.9706 13.1374 24.4496 18.2813H22.449C21.9796 14.2323 18.5446 11.0842 14.3628 11.0842C10.1819 11.0842 6.73819 14.2323 6.27141 18.2821H4.27081C4.74893 13.1382 9.0808 9.09101 14.3602 9.09101V9.09014ZM20.4972 18.2813H18.282C17.8562 16.4631 16.2317 15.1775 14.3602 15.1775C12.4887 15.1775 10.8642 16.4631 10.4384 18.2813H8.22403C8.68383 15.255 11.2917 13.019 14.3602 13.019C17.4287 13.019 20.0366 15.2558 20.4972 18.2813ZM5.68685 32.4361L4.7245 25.0136H12.3395L11.8466 29.6875C8.95255 29.5935 6.8996 31.1279 5.68685 32.4361ZM22.4542 38.7306C22.1838 41.9875 19.6405 44.4428 16.5405 44.4428H12.4154C9.31463 44.4428 6.77221 41.9875 6.49651 38.681L5.99483 34.8018C6.45376 34.0428 8.31564 31.3681 11.6668 31.4003L11.0474 37.2797C10.9662 38.0482 11.5081 38.7419 12.2593 38.8246L12.6807 38.8716C12.7278 38.8768 12.774 38.8803 12.8211 38.8803C13.5313 38.8742 14.1211 38.332 14.1866 37.627L14.7642 32.1376C14.8732 32.1863 14.9805 32.2307 15.0913 32.2855C18.9538 34.1716 21.6367 33.6041 23.2246 32.7773L22.4551 38.7306H22.4542ZM23.5221 30.4795C23.0021 31.0191 20.5941 33.0749 15.8417 30.7554C15.5381 30.6074 15.2432 30.4821 14.9517 30.3663L15.5154 25.0118H24.2289L23.5221 30.4795ZM26.6448 22.285C26.6448 22.459 26.5767 22.6261 26.4537 22.7489C26.3315 22.8725 26.164 22.9421 25.9904 22.943H2.73262C2.37054 22.943 2.07651 22.6496 2.07564 22.2884V21.0081C2.07651 20.6469 2.37054 20.3536 2.73262 20.3536H25.9904C26.3525 20.3536 26.6456 20.6469 26.6465 21.0081L26.6448 22.285Z" fill="#122F53"/>
<path d="M16.763 40.9335C16.1313 41.0702 15.73 41.6907 15.867 42.3209C16.0031 42.951 16.626 43.3514 17.2568 43.2165C17.8885 43.0807 18.2907 42.4593 18.1555 41.83C18.0901 41.5262 17.906 41.2617 17.6451 41.0937C17.3833 40.9257 17.0666 40.8674 16.763 40.9335ZM17.605 38.3311C17.3877 38.379 17.2211 38.5513 17.1809 38.7698C17.1417 38.9874 17.2376 39.2084 17.4252 39.3286C17.6111 39.4478 17.8527 39.4443 18.0351 39.3172C18.2174 39.191 18.3056 38.9674 18.2584 38.7515C18.1939 38.4556 17.9016 38.2676 17.605 38.332V38.3311ZM10.0109 41.6751C9.79012 41.7229 9.64965 41.9405 9.69764 42.1616C9.74563 42.3818 9.96375 42.5219 10.1845 42.4732C10.4061 42.4253 10.5457 42.2086 10.4986 41.9875C10.475 41.8822 10.4113 41.79 10.3197 41.7308C10.2281 41.6725 10.1173 41.6524 10.0109 41.6751ZM14.5504 39.0622C14.2433 39.1284 14.0068 39.3729 13.951 39.6811C13.8952 39.99 14.0313 40.3016 14.2956 40.4705C14.56 40.6402 14.9003 40.6341 15.1585 40.4557C15.4159 40.2764 15.5407 39.9604 15.4744 39.6549C15.3827 39.2372 14.9692 38.9717 14.5504 39.0622ZM9.93496 39.0622C9.51616 39.1536 9.25006 39.5662 9.34167 39.9839C9.43241 40.4017 9.84596 40.6672 10.2648 40.5758C10.6835 40.4853 10.9497 40.0727 10.858 39.6541C10.8144 39.4539 10.6931 39.2781 10.5195 39.1667C10.3468 39.0561 10.1356 39.0187 9.93496 39.0622ZM17.1792 37.0273C17.6259 36.9307 17.9697 36.5747 18.0517 36.1273C18.1319 35.6791 17.9348 35.2256 17.5509 34.9793C17.167 34.733 16.6714 34.7417 16.2962 35.0019C15.9211 35.2613 15.7405 35.7209 15.8373 36.1656C15.9699 36.7731 16.5702 37.1587 17.1801 37.0273H17.1792ZM12.0647 41.4906C11.7017 41.7177 11.5909 42.1956 11.8178 42.5576C12.0446 42.9197 12.5236 43.0311 12.8866 42.8048C13.2504 42.5794 13.3621 42.1024 13.137 41.7395C13.0279 41.5645 12.8534 41.4401 12.6527 41.3931C12.4512 41.3469 12.2401 41.3818 12.0647 41.4914V41.4906ZM19.8725 37.5356C20.0994 37.8977 20.5792 38.0082 20.9422 37.781C21.306 37.5547 21.416 37.076 21.1891 36.7131C20.9623 36.351 20.4824 36.2405 20.1186 36.4676C19.9441 36.5764 19.8193 36.7496 19.7731 36.9507C19.7268 37.1509 19.7626 37.3615 19.8725 37.5356ZM19.7705 39.7429C19.4066 39.9691 19.2958 40.4479 19.5235 40.8099C19.7504 41.1729 20.2294 41.2834 20.5932 41.0562C20.957 40.8299 21.067 40.3512 20.8401 39.9892C20.7311 39.8151 20.5566 39.6906 20.3559 39.6445C20.1552 39.5984 19.9441 39.6341 19.7696 39.7429H19.7705ZM9.49784 36.5381C9.17241 36.0203 8.48925 35.8636 7.971 36.1874C7.45187 36.512 7.29395 37.1935 7.61851 37.7105C7.94308 38.2284 8.6271 38.3859 9.14536 38.0622C9.39489 37.9064 9.57288 37.6583 9.63831 37.3728C9.70462 37.0874 9.65402 36.7862 9.49784 36.5373V36.5381Z" fill="#122F53"/>
<defs>
<linearGradient id="paint0_linear_3211_2" x1="4.57703" y1="37.8064" x2="24.3783" y2="37.8064" gradientUnits="userSpaceOnUse">
<stop stop-color="#59C4C9"/>
<stop offset="0.37" stop-color="#41B1BE"/>
<stop offset="1" stop-color="#0F8BA8"/>
</linearGradient>
</defs>
</svg>
